<?xml version="1.0" encoding="UTF-8"?>
<svg id="_图层_1" data-name="图层 1" xmlns="http://www.w3.org/2000/svg" viewBox="0 0 234.95 141.02">
  <path d="M230.62,9.92c5.57,7.95,5.64,19.84.95,28.24-2.66,4.78-10.45,10.57-15.92,11.51-2.75.47-7.78-.22-9.32,1.16l-33.86,53.43c2.99,6.83,3.11,16.14-.52,22.81-1.39,2.54-6.03,7.91-8.45,9.31-5.76,3.34-13.28,5.41-20.06,3.43-.69-.2-4.81-1.88-5.79-2.3-4.15-1.77-5.65-5.28-8.93-7.98l-28.75-50.4-10.72,16.71c1.61,3.93,4.19,7.21,5.12,11.53,5.95,27.59-26.1,41.89-44.29,22.6C36.35,102.32,15.51,74.12,3.01,46.25-10.62,15.86,25.29-5.79,45.93,18.57l30.21,54.4,1.66.5,10.21-16.56c-6.95-11.95-12.48-21.61-4.98-35.18,8.3-15.02,29.71-16.2,41.07-3.95l32.54,57.88,3.77,5.09,27.49-42.01c.57-2.09-2.69-8.02-2.89-11.75-.71-13.21,7.92-24.61,20.91-26.69,8.74-1.4,19.62,2.35,24.72,9.63ZM230.92,16.9h-28.2c-.11,0-.03,1.26-.85,1.95-6.77,5.71-9.04,8.56-8.02,18.26h12.49c1.13,0,4.53-3.1,3.63-4.85h-12.09c1.17-15.73,17.28-8.83,27.61-10.7,2.24-.41,5.36-1.99,5.43-4.66ZM222.06,23.36h-12.49c-2.24,0-5.8,4.33-6.04,6.47h13.3c2.31,0,5.89-3.76,5.24-6.47Z"/>
</svg>